<svg viewBox="0 0 120 120" xmlns="http://www.w3.org/2000/svg">
  <defs>
    <linearGradient id="oro" gradientUnits="userSpaceOnUse" x1="60" y1="6" x2="60" y2="112">
      <stop offset="0%" stop-color="#F5D87A"/>
      <stop offset="50%" stop-color="#D4AF37"/>
      <stop offset="100%" stop-color="#B8952E"/>
    </linearGradient>
  </defs>
  <rect width="120" height="120" rx="24" fill="#0A0A0A"/>
  <path d="M43 22 a17 17 0 0 1 34 0 v3 h-34 z" fill="url(#oro)"/>
  <rect x="43" y="28" width="34" height="5" rx="2.5" fill="url(#oro)"/>
  <rect x="43" y="36" width="34" height="5" rx="2.5" fill="url(#oro)"/>
  <rect x="43" y="44" width="34" height="5" rx="2.5" fill="url(#oro)"/>
  <path d="M43 52 h34 v10 a17 17 0 0 1 -34 0 z" fill="url(#oro)"/>
  <g fill="#0A0A0A">
    <rect x="57.5" y="53.5" width="5" height="21" rx="2"/>
    <rect x="50" y="58.5" width="20" height="5" rx="2"/>
  </g>
  <path d="M34 38 v22 a26 26 0 0 0 52 0 v-22" fill="none" stroke="url(#oro)" stroke-width="5.5" stroke-linecap="round"/>
  <line x1="60" y1="86" x2="60" y2="102" stroke="url(#oro)" stroke-width="5.5"/>
  <rect x="38" y="102" width="44" height="6.5" rx="3" fill="url(#oro)"/>
</svg>
